# xmcd CD database file
#
# Track frame offsets:
#	150
#	15502
#	37763
#	54142
#	68571
#	87082
#	102365
#	119415
#	131763
#	145026
#	162361
#	181837
#	198276
#
# Disc length: 2931 seconds
#
# Revision: 0
# Processed by: cddbd v1.5.2PL0 Copyright (c) Steve Scherf et al.
# Submitted via: CDex 1.70beta2
#
DISCID=9d0b710d
DTITLE=Tom Gaebel - Perfect Day
DYEAR=2018
DGENRE=Jazz
TTITLE0=Feels Like Home
TTITLE1=Someone Else
TTITLE2=Eye of the Tiger
TTITLE3=The Best Things in Life Are Free
TTITLE4=Back on the Road
TTITLE5=Like Before
TTITLE6=What About Love
TTITLE7=The Nearness of You
TTITLE8=Why Can't You and I Add Up
TTITLE9=You Make Me feel
TTITLE10=Wake Up
TTITLE11=Can't Take My Eyes off You
TTITLE12=Taking Back My Crown
EXTD=YEAR: 2018
EXTT0=
EXTT1=
EXTT2=
EXTT3=
EXTT4=
EXTT5=
EXTT6=
EXTT7=
EXTT8=
EXTT9=
EXTT10=
EXTT11=
EXTT12=
PLAYORDER=
